<svg width="340" height="270" viewBox="0 0 340 270" fill="none" xmlns="http://www.w3.org/2000/svg">
<path d="M82.3381 75.531L123.15 49.7401L131.697 63.3134L90.8853 89.1043L121.707 138.05L106.926 147.391L76.1043 98.445L33.2395 125.533L26.6348 115.045L30.9524 39.8678L51.6458 26.7907L82.3381 75.531ZM46.0336 50.6919L43.6612 99.9727L67.5571 84.8718L46.0336 50.6919Z" fill="#32DE8B"/>
<path d="M266.819 171.052L307.631 145.261L316.178 158.834L275.366 184.625L306.188 233.571L291.407 242.912L260.585 193.966L217.72 221.054L211.116 210.566L215.433 135.389L236.127 122.312L266.819 171.052ZM230.515 146.213L228.142 195.494L252.038 180.393L230.515 146.213Z" fill="#315EFF"/>
<path d="M115.561 158.194L171.506 42.902C176.43 32.7549 183.758 25.9956 193.49 22.6241C203.31 19.2952 213.241 20.0757 223.283 24.9657C233.237 29.8132 239.941 37.1331 243.394 46.9253C246.889 56.6301 246.175 66.5561 241.251 76.7031L185.243 192.126C180.319 202.273 172.903 208.99 162.996 212.276C153.176 215.605 143.289 214.846 133.335 209.999C123.38 205.151 116.677 197.831 113.224 188.039C109.858 178.289 110.637 168.341 115.561 158.194ZM187.223 50.5559L131.279 165.848C128.435 171.708 127.91 177.239 129.705 182.439C131.588 187.681 135.323 191.663 140.911 194.384C146.5 197.106 151.977 197.61 157.342 195.897C162.75 194.096 166.855 190.309 169.656 184.536L225.664 69.113C228.423 63.4271 228.839 57.898 226.912 52.5256C225.115 47.1083 221.422 43.0389 215.833 40.3175C210.245 37.5961 204.79 37.157 199.47 39.0001C194.149 40.8431 190.067 44.6951 187.223 50.5559Z" fill="#101010"/>
</svg>
