<svg width="180" height="180" viewBox="0 0 180 180" fill="none" xmlns="http://www.w3.org/2000/svg">
<rect width="180" height="180" rx="55.048" fill="#101010"/>
<path d="M44.9112 79.6944H52.8984V105H44.9112V79.6944ZM33.9288 76.2H63.8808V83.2656H33.9288V76.2ZM92.1501 84.3792H84.3549C84.2269 83.432 83.8045 82.6512 83.0877 82.0368C82.3965 81.3968 81.3981 81.0768 80.0925 81.0768C79.3245 81.0768 78.6589 81.1792 78.0957 81.384C77.5581 81.5888 77.1485 81.8832 76.8669 82.2672C76.5853 82.6512 76.4445 83.0864 76.4445 83.5728C76.4445 83.9824 76.5597 84.392 76.7901 84.8016C77.0461 85.2112 77.4557 85.6464 78.0189 86.1072L99.9453 105H90.1533L72.0285 89.4864C70.9277 88.5392 69.9933 87.5408 69.2253 86.4912C68.4829 85.416 68.1117 84.264 68.1117 83.0352C68.1117 81.5504 68.5597 80.2576 69.4557 79.1568C70.3517 78.0304 71.6701 77.16 73.4109 76.5456C75.1517 75.9056 77.2765 75.5856 79.7853 75.5856C82.3453 75.5856 84.5213 75.9696 86.3133 76.7376C88.1309 77.5056 89.5261 78.5552 90.4989 79.8864C91.4973 81.2176 92.0477 82.7152 92.1501 84.3792ZM90.1149 89.1024H98.2557L89.0781 99.4704C87.7981 100.93 86.5181 102.12 85.2381 103.042C83.9581 103.938 82.5757 104.59 81.0909 105C79.6061 105.41 77.9165 105.614 76.0221 105.614C73.6157 105.614 71.5421 105.243 69.8013 104.501C68.0861 103.733 66.7677 102.709 65.8461 101.429C64.9245 100.149 64.4637 98.6896 64.4637 97.0512C64.4637 95.6176 64.8477 94.312 65.6157 93.1344C66.3837 91.9568 67.5869 90.9712 69.2253 90.1776C70.8637 89.384 73.0013 88.8592 75.6381 88.6032L77.2509 91.6752C75.6637 92.008 74.4349 92.5584 73.5645 93.3264C72.6941 94.0688 72.2589 94.9648 72.2589 96.0144C72.2589 96.7056 72.4637 97.3456 72.8733 97.9344C73.3085 98.4976 73.8845 98.9456 74.6013 99.2784C75.3437 99.6112 76.2141 99.7776 77.2125 99.7776C79.0045 99.7776 80.4893 99.432 81.6669 98.7408C82.8701 98.0496 83.8941 97.1664 84.7389 96.0912L90.1149 89.1024ZM144.199 76.2V105H136.634V79.0416L138.323 79.2336L127.187 105H119.123L107.949 79.3104L109.677 79.1184V105H102.112V76.2H114.4L124.73 100.93H121.658L131.911 76.2H144.199Z" fill="#CDFF00"/>
</svg>
