<svg width="90" height="90" viewBox="0 0 90 90" fill="none" xmlns="http://www.w3.org/2000/svg">
<rect width="90" height="90" rx="27.524" fill="#101010"/>
<path d="M22.4556 39.3472H26.4492V52H22.4556V39.3472ZM16.9644 37.6H31.9404V41.1328H16.9644V37.6ZM46.0751 41.6896H42.1775C42.1135 41.216 41.9023 40.8256 41.5439 40.5184C41.1983 40.1984 40.6991 40.0384 40.0463 40.0384C39.6623 40.0384 39.3295 40.0896 39.0479 40.192C38.7791 40.2944 38.5743 40.4416 38.4335 40.6336C38.2927 40.8256 38.2223 41.0432 38.2223 41.2864C38.2223 41.4912 38.2799 41.696 38.3951 41.9008C38.5231 42.1056 38.7279 42.3232 39.0095 42.5536L49.9727 52H45.0767L36.0143 44.2432C35.4639 43.7696 34.9967 43.2704 34.6127 42.7456C34.2415 42.208 34.0559 41.632 34.0559 41.0176C34.0559 40.2752 34.2799 39.6288 34.7279 39.0784C35.1759 38.5152 35.8351 38.08 36.7055 37.7728C37.5759 37.4528 38.6383 37.2928 39.8927 37.2928C41.1727 37.2928 42.2607 37.4848 43.1567 37.8688C44.0655 38.2528 44.7631 38.7776 45.2495 39.4432C45.7487 40.1088 46.0239 40.8576 46.0751 41.6896ZM45.0575 44.0512H49.1279L44.5391 49.2352C43.8991 49.9648 43.2591 50.56 42.6191 51.0208C41.9791 51.4688 41.2879 51.7952 40.5455 52C39.8031 52.2048 38.9583 52.3072 38.0111 52.3072C36.8079 52.3072 35.7711 52.1216 34.9007 51.7504C34.0431 51.3664 33.3839 50.8544 32.9231 50.2144C32.4623 49.5744 32.2319 48.8448 32.2319 48.0256C32.2319 47.3088 32.4239 46.656 32.8079 46.0672C33.1919 45.4784 33.7935 44.9856 34.6127 44.5888C35.4319 44.192 36.5007 43.9296 37.8191 43.8016L38.6255 45.3376C37.8319 45.504 37.2175 45.7792 36.7823 46.1632C36.3471 46.5344 36.1295 46.9824 36.1295 47.5072C36.1295 47.8528 36.2319 48.1728 36.4367 48.4672C36.6543 48.7488 36.9423 48.9728 37.3007 49.1392C37.6719 49.3056 38.1071 49.3888 38.6063 49.3888C39.5023 49.3888 40.2447 49.216 40.8335 48.8704C41.4351 48.5248 41.9471 48.0832 42.3695 47.5456L45.0575 44.0512ZM72.0993 37.6V52H68.3169V39.0208L69.1617 39.1168L63.5937 52H59.5617L53.9745 39.1552L54.8385 39.0592V52H51.0561V37.6H57.2001L62.3649 49.9648H60.8289L65.9553 37.6H72.0993Z" fill="#CDFF00"/>
</svg>
