<svg width="1665" height="437" viewBox="0 0 1665 437" fill="none" xmlns="http://www.w3.org/2000/svg">
<path d="M1664.04 251.565V400.665H1629.54V290.265L1585.14 400.665H1559.34L1514.64 289.665V400.665H1480.14V251.565H1533.54L1572.54 350.565L1611.54 251.565H1664.04Z" fill="#101010"/>
<path d="M1384.36 247.365C1408.96 247.365 1428.36 256.065 1442.56 273.465C1456.76 290.665 1462.76 312.165 1460.56 337.965H1342.66C1344.06 347.765 1348.56 356.065 1356.16 362.865C1363.96 369.465 1373.56 372.865 1384.96 373.065C1393.36 373.265 1400.96 371.665 1407.76 368.265C1414.56 364.665 1419.46 359.865 1422.46 353.865H1458.16C1453.36 369.865 1444.26 382.365 1430.86 391.365C1417.66 400.365 1402.16 404.865 1384.36 404.865C1360.76 404.865 1341.96 397.265 1327.96 382.065C1313.96 366.865 1306.96 348.265 1306.96 326.265C1306.96 303.865 1314.16 285.165 1328.56 270.165C1343.16 254.965 1361.76 247.365 1384.36 247.365ZM1383.76 279.165C1373.56 279.165 1364.76 281.965 1357.36 287.565C1350.16 293.165 1345.46 300.565 1343.26 309.765H1424.86C1422.66 300.365 1417.86 292.965 1410.46 287.565C1403.06 281.965 1394.16 279.165 1383.76 279.165Z" fill="#101010"/>
<path d="M1254.12 272.265V251.565H1288.32V400.665H1254.12V379.065H1252.62C1241.22 396.265 1224.32 404.865 1201.92 404.865C1180.72 405.265 1163.12 398.065 1149.12 383.265C1135.32 368.465 1128.42 349.465 1128.42 326.265C1128.42 303.065 1135.32 284.065 1149.12 269.265C1162.92 254.465 1180.52 247.165 1201.92 247.365C1213.12 247.565 1223.02 249.965 1231.62 254.565C1240.42 258.965 1247.42 264.865 1252.62 272.265H1254.12ZM1208.82 371.865C1222.02 371.865 1232.82 367.465 1241.22 358.665C1249.62 349.665 1253.82 338.765 1253.82 325.965C1253.82 312.965 1249.62 302.065 1241.22 293.265C1232.82 284.465 1222.02 280.065 1208.82 280.065C1195.42 280.065 1184.42 284.465 1175.82 293.265C1167.42 302.065 1163.22 312.965 1163.22 325.965C1163.22 338.965 1167.42 349.865 1175.82 358.665C1184.42 367.465 1195.42 371.865 1208.82 371.865Z" fill="#101010"/>
<path d="M647.482 247.365C672.082 247.365 691.482 256.065 705.682 273.465C719.882 290.665 725.882 312.165 723.682 337.965H605.782C607.182 347.765 611.682 356.065 619.282 362.865C627.082 369.465 636.682 372.865 648.082 373.065C656.482 373.265 664.082 371.665 670.882 368.265C677.682 364.665 682.582 359.865 685.582 353.865H721.282C716.482 369.865 707.382 382.365 693.982 391.365C680.782 400.365 665.282 404.865 647.482 404.865C623.882 404.865 605.082 397.265 591.082 382.065C577.082 366.865 570.082 348.265 570.082 326.265C570.082 303.865 577.282 285.165 591.682 270.165C606.282 254.965 624.882 247.365 647.482 247.365ZM646.882 279.165C636.682 279.165 627.882 281.965 620.482 287.565C613.282 293.165 608.582 300.565 606.382 309.765H687.982C685.782 300.365 680.982 292.965 673.582 287.565C666.182 281.965 657.282 279.165 646.882 279.165Z" fill="#101010"/>
<path d="M542.175 251.565V367.665H567.675V436.365H534.375V400.665H419.775V436.365H386.475V367.665H390.075C393.275 367.665 395.775 367.565 397.575 367.365C399.375 366.965 401.575 366.065 404.175 364.665C406.975 363.265 409.075 360.765 410.475 357.165C412.075 353.365 413.075 348.465 413.475 342.465C413.675 339.065 414.075 308.765 414.675 251.565H542.175ZM441.675 367.665H507.675V284.865H447.675C447.275 313.065 446.875 331.265 446.475 339.465C445.875 350.265 444.275 359.665 441.675 367.665Z" fill="#101010"/>
<path d="M383.918 307.065H347.618C345.018 299.265 340.118 292.965 332.918 288.165C325.918 283.165 317.718 280.665 308.318 280.665C294.918 280.665 284.118 285.065 275.918 293.865C267.918 302.465 263.918 313.265 263.918 326.265C263.918 339.065 268.018 349.865 276.218 358.665C284.418 367.465 295.118 371.865 308.318 371.865C317.718 371.865 325.918 369.365 332.918 364.365C340.118 359.365 345.018 352.865 347.618 344.865H383.918C380.518 362.465 371.918 376.865 358.118 388.065C344.318 399.265 327.618 404.865 308.018 404.865C284.618 404.865 265.618 397.365 251.018 382.365C236.618 367.365 229.418 348.565 229.418 325.965C229.418 303.565 236.618 284.865 251.018 269.865C265.618 254.865 284.618 247.365 308.018 247.365C327.618 247.365 344.318 252.965 358.118 264.165C371.918 275.165 380.518 289.465 383.918 307.065Z" fill="#101010"/>
<path d="M34.5 351.765L108.9 251.565H143.4V400.665H108.9V300.765L34.5 400.665H0V251.565H34.5V351.765Z" fill="#101010"/>
<path d="M1095.03 256.154V405.254H1060.53V289.454L804.728 289.454C804.728 309.654 804.328 328.954 803.528 347.354C803.128 356.754 801.928 365.054 799.928 372.254C798.128 379.254 795.628 384.854 792.428 389.054C789.228 393.054 786.128 396.354 783.128 398.954C780.128 401.354 776.228 403.054 771.428 404.054C766.828 405.054 763.228 405.654 760.628 405.854C758.028 406.054 754.528 406.154 750.128 406.154H743.828V371.954H747.128C750.328 371.954 752.828 371.854 754.628 371.654C756.428 371.254 758.628 370.354 761.228 368.954C763.828 367.554 765.828 364.954 767.228 361.154C768.828 357.354 769.828 352.454 770.228 346.454C771.028 337.054 771.428 306.954 771.428 256.154L1095.03 256.154Z" fill="#101010"/>
<path d="M1612.65 51.9V201H1578.15V90.6L1533.75 201H1507.95L1463.25 90V201H1428.75V51.9H1482.15L1521.15 150.9L1560.15 51.9H1612.65Z" fill="#101010"/>
<path d="M1325.47 47.7C1350.07 47.7 1369.47 56.4 1383.67 73.8C1397.87 91 1403.87 112.5 1401.67 138.3H1283.77C1285.17 148.1 1289.67 156.4 1297.27 163.2C1305.07 169.8 1314.67 173.2 1326.07 173.4C1334.47 173.6 1342.07 172 1348.87 168.6C1355.67 165 1360.57 160.2 1363.57 154.2H1399.27C1394.47 170.2 1385.37 182.7 1371.97 191.7C1358.77 200.7 1343.27 205.2 1325.47 205.2C1301.87 205.2 1283.07 197.6 1269.07 182.4C1255.07 167.2 1248.07 148.6 1248.07 126.6C1248.07 104.2 1255.27 85.5 1269.67 70.5C1284.27 55.3 1302.87 47.7 1325.47 47.7ZM1324.87 79.5C1314.67 79.5 1305.87 82.3 1298.47 87.9C1291.27 93.5 1286.57 100.9 1284.37 110.1H1365.97C1363.77 100.7 1358.97 93.3 1351.57 87.9C1344.17 82.3 1335.27 79.5 1324.87 79.5Z" fill="#101010"/>
<path d="M1221.53 51.9V201H1187.03V90.6L1142.63 201H1116.83L1072.13 90V201H1037.63V51.9H1091.03L1130.03 150.9L1169.03 51.9H1221.53Z" fill="#101010"/>
<path d="M962.566 98.4C977.766 98.4 990.166 103.4 999.766 113.4C1009.57 123.4 1014.47 135.4 1014.47 149.4C1014.47 163.6 1009.57 175.8 999.766 186C990.166 196 977.766 201 962.566 201H877.966V51.9H912.466V98.4H962.566ZM961.366 168.9C966.766 168.9 971.266 167 974.866 163.2C978.466 159.2 980.266 154.5 980.266 149.1C980.266 143.9 978.466 139.4 974.866 135.6C971.266 131.8 966.766 129.9 961.366 129.9H912.466V168.9H961.366Z" fill="#101010"/>
<path d="M827.943 123.6V124.8C835.343 127.4 840.943 131.8 844.743 138C848.543 144.2 850.443 151.1 850.443 158.7C850.443 169.9 846.343 179.8 838.143 188.4C829.943 196.8 818.743 201 804.543 201H716.643V168.3H800.643C805.043 168.3 808.543 166.9 811.143 164.1C813.743 161.3 815.043 158.1 815.043 154.5C815.043 151.1 813.743 148.1 811.143 145.5C808.743 142.9 805.243 141.6 800.643 141.6H741.243V111.3H797.943C802.343 111.3 805.743 110 808.143 107.4C810.743 104.6 812.043 101.4 812.043 97.8C812.043 94.2 810.843 91.1 808.443 88.5C806.043 85.9 802.543 84.6 797.943 84.6H716.643V51.9H801.243C815.843 51.9 827.143 55.9 835.143 63.9C843.143 71.7 847.143 81.1 847.143 92.1C847.143 98.7 845.443 104.9 842.043 110.7C838.843 116.5 834.143 120.8 827.943 123.6Z" fill="#101010"/>
<path d="M325.342 205.2C301.542 205.2 282.142 197.7 267.142 182.7C252.142 167.5 244.642 148.7 244.642 126.3C244.642 103.9 252.042 85.2 266.842 70.2C281.842 55.2 301.342 47.7 325.342 47.7C348.942 47.7 368.042 55.2 382.642 70.2C397.442 85.2 404.842 103.9 404.842 126.3C404.842 148.7 397.442 167.5 382.642 182.7C367.842 197.7 348.742 205.2 325.342 205.2ZM325.342 172.2C338.542 172.2 349.342 167.8 357.742 159C366.142 150.2 370.342 139.4 370.342 126.6C370.342 113.6 366.142 102.8 357.742 94.2C349.342 85.4 338.542 81 325.342 81C311.742 81 300.642 85.4 292.042 94.2C283.642 102.8 279.442 113.6 279.442 126.6C279.442 139.4 283.642 150.2 292.042 159C300.642 167.8 311.742 172.2 325.342 172.2Z" fill="#101010"/>
<path d="M193.701 95.4V96.3C202.901 100.3 210.201 106.4 215.601 114.6C221.201 122.6 224.001 132.1 224.001 143.1C224.001 159.7 218.201 173.5 206.601 184.5C195.201 195.5 181.001 201 164.001 201H56.3008V0H159.801C176.401 0 190.301 5 201.501 15C212.701 24.8 218.301 37.7 218.301 53.7C218.301 62.5 216.101 70.6 211.701 78C207.501 85.4 201.501 91.2 193.701 95.4ZM155.901 33.6H92.3008V82.8H155.901C163.301 82.8 169.401 80.4 174.201 75.6C179.201 70.8 181.701 65 181.701 58.2C181.701 51.2 179.201 45.4 174.201 40.8C169.401 36 163.301 33.6 155.901 33.6ZM92.3008 167.1H160.701C168.501 167.1 174.901 164.7 179.901 159.9C184.901 154.9 187.401 148.7 187.401 141.3C187.401 133.9 184.801 127.7 179.601 122.7C174.401 117.7 167.901 115.2 160.101 115.2H92.3008V167.1Z" fill="#101010"/>
<path d="M429.186 51.9033H745.268V84.6138H429.186V51.9033Z" fill="#101010"/>
<path d="M429.186 168.29H745.268V201H429.186V168.29Z" fill="#101010"/>
</svg>
