<svg width="82" height="82" viewBox="0 0 82 82" fill="none" xmlns="http://www.w3.org/2000/svg">
<circle cx="41" cy="41" r="41" fill="#C60C30"/>
<g clip-path="url(#clip0_820_11687)">
<path d="M36.6767 61.2264C33.045 60.4836 29.6608 58.7915 27.0196 56.4391C20.21 50.393 18.0846 40.8802 21.6958 32.3991C22.5831 30.315 24.0275 28.2102 25.8021 26.3736L27.3704 24.7641L27.4735 34.215C27.5767 43.2738 27.5973 43.7278 28.0307 44.8627C28.8973 47.1532 29.8053 48.5977 31.3942 50.166C35.4799 54.2311 41.464 55.2422 46.5608 52.7454C51.3481 50.393 54.3608 45.2548 54.01 40.0548C53.7831 36.5674 52.6069 34.0087 50.0688 31.4705C48.1497 29.5515 45.9005 28.2927 43.4656 27.7768C40.9688 27.261 41.0926 27.1784 41.0926 29.2832V31.0991L42.4545 31.3467C47.737 32.3166 51.245 37.5166 50.1513 42.758C49.8005 44.4294 49.0164 45.9151 47.7577 47.2771C45.8386 49.3406 43.1354 50.3311 40.7831 50.3311C36.8831 50.3311 33.6434 48.1025 32.0545 44.8421C32.0545 44.8421 31.6418 43.9135 31.518 43.3357C30.7339 39.9309 31.2291 32.7912 31.2291 32.7912L31.1672 22.3292L31.7862 22.0196C32.1164 21.8339 32.4465 21.7101 32.5085 21.7101C32.5704 21.7101 32.6323 26.5181 32.6735 32.3991C32.6735 32.3991 31.9307 40.096 32.8592 43.0469C32.9831 43.4802 33.2513 44.2024 33.2513 44.2024C34.0561 45.8532 35.3561 47.3183 37.0481 48.1231C38.3275 48.7215 38.9878 49.0104 40.8862 49.0104C42.1243 49.0104 43.218 48.6183 44.4973 48.0406C45.9831 47.3596 47.6958 45.5437 48.3354 43.8723C50.0688 39.2913 47.6545 34.3801 42.9704 32.9975C41.0513 32.4404 41.0926 32.3991 41.0926 34.4833V36.2992L42.0005 36.5468C45.3021 37.4341 46.3132 41.8706 43.7132 44.1405C42.8053 44.9453 41.9799 45.2961 40.5354 45.2961C38.9878 45.2961 37.5021 44.3675 36.7386 42.923C36.2846 42.0564 36.2434 41.2516 36.2434 40.8802C36.2434 37.4341 36.1608 31.2023 36.1608 31.2023L36.0989 20.5339L36.5735 20.4101C36.8418 20.3482 37.8942 20.1831 38.9259 20.0593C42.4132 19.6053 47.5719 20.7609 51.0386 22.7419C55.764 25.4451 59.3339 30.088 60.8196 35.4531C61.3354 37.2896 61.3974 37.8468 61.3974 40.7976C61.3974 43.7484 61.3354 44.3056 60.8402 46.1215C58.818 53.4263 53.6592 58.6264 46.2926 60.855C44.745 61.3296 44.0227 61.4121 41.2783 61.474C39.0704 61.4947 37.6465 61.4328 36.6767 61.2264Z" fill="white"/>
</g>
<defs>
<clipPath id="clip0_820_11687">
<rect width="41.4556" height="41.5225" fill="white" transform="translate(19.9473 19.9473)"/>
</clipPath>
</defs>
</svg>
