<svg width="82" height="82" viewBox="0 0 82 82" fill="none" xmlns="http://www.w3.org/2000/svg">
<circle cx="41" cy="41" r="40.5" stroke="#E4E2F0"/>
<path d="M32.896 41.4358C33.0722 38.2939 34.6082 35.5176 36.9356 33.556C39.2131 31.6276 42.272 30.4473 45.6301 30.4473C48.9716 30.4473 52.0304 31.6259 54.3079 33.556C56.6353 35.5176 58.1647 38.2939 58.3476 41.4358C58.5238 44.6609 57.2254 47.6699 54.9562 49.8975C52.6289 52.1584 49.3373 53.5881 45.6301 53.5881C41.9229 53.5881 38.6147 52.1684 36.3039 49.8975C34.0264 47.6699 32.7297 44.6776 32.9126 41.4525L32.896 41.4358Z" fill="white"/>
<path d="M39.8611 41.0512C39.9516 39.4366 40.741 38.0099 41.937 37.0018C43.1074 36.0108 44.6793 35.4043 46.405 35.4043C48.1221 35.4043 49.6941 36.01 50.8644 37.0018C52.0605 38.0099 52.8464 39.4366 52.9404 41.0512C53.0309 42.7085 52.3637 44.2548 51.1976 45.3996C50.0016 46.5614 48.3101 47.2961 46.405 47.2961C44.4999 47.2961 42.7999 46.5665 41.6124 45.3996C40.442 44.2548 39.7756 42.7171 39.8696 41.0597L39.8611 41.0512Z" fill="#265787"/>
<path d="M29.6094 44.4686C29.6205 45.1008 29.8221 46.3309 30.1246 47.2878C30.7602 49.321 31.8417 51.2005 33.3367 52.8493C34.8745 54.5493 36.771 55.9162 38.958 56.8901C41.2561 57.9067 43.7506 58.4278 46.3391 58.4278C48.9277 58.4244 51.4222 57.8948 53.7203 56.8645C55.9073 55.882 57.8038 54.5151 59.3416 52.8065C60.8452 51.1407 61.9216 49.2612 62.5537 47.228C62.8741 46.2028 63.0766 45.1606 63.1577 44.1183C63.2372 43.0932 63.2039 42.0595 63.0578 41.0258C62.7725 39.0182 62.0753 37.1302 61.0075 35.4216C60.0336 33.8411 58.7692 32.4657 57.2656 31.3038L57.2691 31.3013L42.148 19.6828C42.1343 19.6726 42.1232 19.6615 42.1087 19.6521C41.1177 18.89 39.4433 18.8926 38.3583 19.6563C37.2562 20.4286 37.1281 21.7067 38.1106 22.5097L38.1063 22.514L44.4195 27.6483L25.1978 27.6688H25.1722C23.5832 27.6705 22.054 28.7111 21.755 30.0352C21.444 31.3765 22.5239 32.4956 24.1812 32.4956L24.1787 32.5016L33.9177 32.4828L16.49 45.8098C16.4678 45.8261 16.4438 45.8431 16.4233 45.8594C14.7831 47.1152 14.2534 49.2082 15.2871 50.5239C16.3379 51.8651 18.5676 51.8736 20.225 50.5315L29.7077 42.7574C29.7077 42.7574 29.5693 43.8082 29.5804 44.4319L29.6094 44.4686ZM54.0424 47.9797C52.086 49.9703 49.3437 51.1065 46.3878 51.1065C43.4234 51.1116 40.6811 49.9959 38.7248 48.0054C37.768 47.0315 37.0675 45.9209 36.6318 44.7334C36.2072 43.563 36.0423 42.3243 36.1516 41.077C36.255 39.8554 36.6189 38.685 37.2024 37.6342C37.7731 36.6005 38.5608 35.6608 39.5261 34.8663C41.4312 33.32 43.8489 32.4742 46.3776 32.4742C48.9149 32.4708 51.3325 33.302 53.2376 34.8492C54.203 35.6386 54.9889 36.5749 55.5613 37.6086C56.1448 38.6594 56.5096 39.8212 56.6121 41.0514C56.7197 42.2987 56.5549 43.5374 56.1303 44.7078C55.6963 45.9038 54.994 47.0144 54.0372 47.9883L54.0424 47.9797Z" fill="#EA7600"/>
</svg>
