<svg width="82" height="82" viewBox="0 0 82 82" fill="none" xmlns="http://www.w3.org/2000/svg">
<circle cx="41" cy="41" r="41" fill="#264DE4"/>
<g clip-path="url(#clip0_962_12451)">
<path d="M22.9892 62.7857L19.0464 18.5625H62.3711L58.4241 62.7787L40.6823 67.6974L22.9892 62.7857Z" fill="#264DE4"/>
<path d="M55.0448 59.9637L58.4178 22.1787H40.7085V63.9382L55.0448 59.9637Z" fill="#2965F1"/>
<path d="M28.0852 38.5804L28.5713 44.0042H40.7087V38.5804H28.0852ZM27.6015 33.0264H40.7087V27.6025H27.1084L27.6015 33.0264ZM40.7087 52.6666L40.6849 52.673L34.6444 51.0419L34.2583 46.7161H28.8135L29.5735 55.2323L40.6837 58.3167L40.7087 58.3097V52.6666Z" fill="#EBEBEB"/>
<path d="M40.6899 38.5804V44.0042H47.3687L46.7392 51.0385L40.6899 52.6711V58.314L51.809 55.2323L51.8906 54.3159L53.165 40.0368L53.2975 38.5804L54.2766 27.6025H40.6899V33.0264H48.3326L47.839 38.5804H40.6899Z" fill="white"/>
</g>
<defs>
<clipPath id="clip0_962_12451">
<rect width="49.1349" height="49.1349" fill="white" transform="translate(16.1411 18.5625)"/>
</clipPath>
</defs>
</svg>
