<svg width="82" height="82" viewBox="0 0 82 82" fill="none" xmlns="http://www.w3.org/2000/svg">
<circle cx="41" cy="41" r="41" fill="black"/>
<path d="M32.9232 34.1338C29.1967 34.1338 26.1758 31.1129 26.1758 27.3864C26.1758 23.6599 29.1967 20.639 32.9232 20.639L39.6706 20.639L39.6706 34.1338L32.9232 34.1338Z" fill="#F24E1E"/>
<path d="M32.9232 47.6279C29.1967 47.6279 26.1758 44.607 26.1758 40.8805C26.1758 37.154 29.1967 34.1331 32.9232 34.1331L39.6706 34.1331L39.6706 47.6279L32.9232 47.6279Z" fill="#A259FF"/>
<path d="M46.4178 47.6279C42.6913 47.6279 39.6704 44.607 39.6704 40.8805C39.6704 37.154 42.6913 34.1331 46.4178 34.1331C50.1443 34.1331 53.1652 37.154 53.1652 40.8805C53.1652 44.607 50.1443 47.6279 46.4178 47.6279Z" fill="#1ABCFE"/>
<path d="M32.9232 61.123C29.1967 61.123 26.1758 58.1021 26.1758 54.3756C26.1758 50.6492 29.1967 47.6282 32.9232 47.6282L39.6706 47.6282L39.6706 54.3756C39.6706 58.1021 36.6497 61.123 32.9232 61.123Z" fill="#0ACF83"/>
<path d="M46.4181 20.6387C50.1446 20.6387 53.1655 23.6596 53.1655 27.3861C53.1655 31.1126 50.1446 34.1335 46.4181 34.1335L39.6707 34.1335L39.6707 20.6387L46.4181 20.6387Z" fill="#FF7262"/>
</svg>
