<svg width="82" height="82" viewBox="0 0 82 82" fill="none" xmlns="http://www.w3.org/2000/svg">
<circle cx="41" cy="41" r="41" fill="#E34F26"/>
<g clip-path="url(#clip0_962_12460)">
<g clip-path="url(#clip1_962_12460)">
<path d="M22.7044 62.9832L18.7144 18.2168H62.6049L58.6148 62.9832L40.611 68.0438" fill="#E34F26"/>
<path d="M40.7085 64.1508L55.2089 60.1608L58.6151 21.8174H40.7085" fill="#EF652A"/>
<path d="M40.7084 38.4585H33.4095L32.9229 32.8141H40.7084V27.3643H40.611H26.8892L26.9865 28.824L28.3489 44.0057H40.7084V38.4585ZM40.7084 52.7643H40.611L34.48 51.1099L34.0907 46.7306H31.1712H28.6409L29.3221 55.3919L40.611 58.5061H40.7084V52.7643Z" fill="#EBEBEB"/>
<path d="M40.6108 38.4585V44.0057H47.4231L46.7419 51.1099L40.6108 52.7643V58.5061L51.8998 55.3919L51.9971 54.4187L53.2622 39.9183L53.4569 38.4585H51.8998H40.6108ZM40.6108 27.3643V30.7704V32.8141H53.9434L54.0408 31.6463L54.3327 28.824L54.43 27.3643H40.6108Z" fill="white"/>
</g>
</g>
<defs>
<clipPath id="clip0_962_12460">
<rect width="55.3633" height="55.3633" fill="white" transform="translate(13.0269 13.0264)"/>
</clipPath>
<clipPath id="clip1_962_12460">
<rect width="49.827" height="49.827" fill="white" transform="translate(15.7949 18.2168)"/>
</clipPath>
</defs>
</svg>
