<svg width="82" height="82" viewBox="0 0 82 82" fill="none" xmlns="http://www.w3.org/2000/svg">
<circle cx="41" cy="41" r="41" fill="#0868AC"/>
<g clip-path="url(#clip0_962_12573)">
<rect width="41.5225" height="41.5225" transform="translate(19.9473 19.9473)" fill="#0868AC"/>
<path d="M23.8792 29.9736C20.3675 35.0209 20.8047 41.5874 23.4873 46.9503C23.551 47.0789 23.6179 47.2054 23.6837 47.3319C23.7259 47.4122 23.7655 47.4944 23.8092 47.5737C23.8339 47.6209 23.8617 47.6672 23.8874 47.7125C23.9332 47.7979 23.98 47.8791 24.0273 47.9625C24.1106 48.1095 24.196 48.2556 24.2834 48.4017C24.3317 48.4819 24.3796 48.5621 24.4295 48.6424C24.5261 48.7987 24.6254 48.953 24.7267 49.1073C24.7689 49.1731 24.81 49.2389 24.8532 49.3027C24.9931 49.5115 25.1361 49.7193 25.2837 49.924C25.2874 49.9292 25.2914 49.9353 25.296 49.9404C25.3192 49.9733 25.3449 50.0052 25.3685 50.0381C25.4961 50.214 25.6277 50.3878 25.7609 50.5596C25.8098 50.6224 25.8592 50.6851 25.9085 50.7479C26.0273 50.897 26.1482 51.0451 26.2711 51.1932C26.3169 51.2488 26.3632 51.3043 26.4095 51.3588C26.5746 51.5532 26.7427 51.7466 26.9145 51.9359C26.9177 51.9388 26.9217 51.9431 26.9248 51.9461C26.932 51.9544 26.9381 51.9595 26.9443 51.9677C27.112 52.1508 27.2837 52.3298 27.4576 52.5088C27.5116 52.5643 27.5666 52.6198 27.6222 52.6744C27.7569 52.8101 27.8937 52.9439 28.032 53.0765C28.0881 53.13 28.1437 53.1845 28.1997 53.236C28.3843 53.4098 28.571 53.5806 28.7613 53.7472C28.7645 53.7501 28.767 53.7525 28.7701 53.7544C28.8025 53.7832 28.8359 53.8099 28.8678 53.8377C29.0354 53.9827 29.2062 54.1267 29.3779 54.2687C29.4479 54.3253 29.5189 54.3808 29.5893 54.4374C29.7297 54.5495 29.8717 54.6606 30.0146 54.7696C30.0902 54.8272 30.1658 54.8848 30.242 54.9424C30.3998 55.0587 30.5588 55.1728 30.7192 55.285C30.7778 55.3272 30.8344 55.3683 30.8931 55.4084C30.9095 55.4197 30.9244 55.431 30.9409 55.4424C31.0931 55.5473 31.2489 55.6481 31.4043 55.7489C31.4711 55.7931 31.5375 55.8394 31.6048 55.8826C31.8435 56.0338 32.0857 56.1829 32.3305 56.3269C32.3969 56.365 32.4642 56.402 32.5311 56.4401C32.7111 56.544 32.8921 56.6458 33.0757 56.7456C33.175 56.7991 33.2768 56.8495 33.3771 56.9009C33.5067 56.9688 33.6353 57.0377 33.7669 57.1035C33.7967 57.118 33.8276 57.1324 33.8569 57.1467C33.9099 57.1724 33.9634 57.1971 34.0164 57.2239C34.2205 57.3216 34.4263 57.4172 34.6341 57.5098C34.6783 57.5294 34.721 57.5489 34.7647 57.5684C35.0028 57.6723 35.243 57.7721 35.4852 57.8678C35.5433 57.8914 35.602 57.9141 35.6606 57.9367C35.8848 58.0231 36.1122 58.1085 36.3405 58.1887C36.3693 58.199 36.3971 58.2082 36.4259 58.2185C36.6763 58.3059 36.9294 58.3872 37.1839 58.4664C37.2446 58.4838 37.3058 58.5034 37.367 58.5209C37.6262 58.5991 37.8824 58.6927 38.1498 58.742C55.1329 61.8391 60.066 48.5362 60.066 48.5362C55.9228 53.934 48.5684 55.3576 41.6003 53.7727C41.3365 53.713 41.0804 53.6307 40.8227 53.5546C40.7574 53.535 40.6931 53.5155 40.6288 53.496C40.3773 53.4188 40.1279 53.3376 39.88 53.2522C39.8461 53.2399 39.8116 53.2275 39.7772 53.2152C39.555 53.137 39.3354 53.0547 39.1168 52.9703C39.0551 52.9457 38.9934 52.922 38.9317 52.8973C38.692 52.8027 38.4539 52.7039 38.2188 52.6011C38.1705 52.5805 38.1242 52.5589 38.0764 52.5383C37.8743 52.4468 37.6742 52.3542 37.4752 52.2586C37.4176 52.2308 37.36 52.204 37.3013 52.1752C37.145 52.099 36.9904 52.0177 36.8362 51.9385C36.733 51.8841 36.6281 51.8327 36.5257 51.7758C36.3374 51.6751 36.1524 51.5702 35.9683 51.4632C35.9059 51.4283 35.8427 51.3946 35.78 51.3583C35.5352 51.2142 35.2934 51.0651 35.054 50.9138C34.9879 50.8717 34.9234 50.8266 34.8581 50.7832C34.6846 50.6712 34.5118 50.557 34.3416 50.4399C34.2852 50.4015 34.2308 50.3607 34.1752 50.3227C34.0109 50.2065 33.8483 50.0889 33.6869 49.9697C33.6136 49.9153 33.5415 49.8606 33.4703 49.8062C33.3225 49.6929 33.1754 49.5787 33.0296 49.4616C32.9638 49.4091 32.898 49.3567 32.8332 49.3042C32.648 49.152 32.4649 48.9987 32.2844 48.8413C32.2654 48.8249 32.2448 48.8084 32.2242 48.7909C32.0288 48.6192 31.837 48.4433 31.6472 48.2664C31.5922 48.2139 31.5387 48.1625 31.4847 48.11C31.3443 47.9763 31.206 47.8416 31.0702 47.7037C31.0157 47.6492 30.9611 47.5957 30.9077 47.5412C30.7349 47.3643 30.5651 47.1853 30.399 47.0033C30.3908 46.994 30.3821 46.9858 30.3738 46.9765C30.1979 46.7842 30.0262 46.5877 29.858 46.3892C29.8122 46.3347 29.768 46.2822 29.7227 46.2288C29.5972 46.0776 29.4728 45.9243 29.3514 45.77C29.3059 45.7144 29.2604 45.6575 29.2153 45.6002C29.0691 45.4106 28.9263 45.2214 28.7864 45.0293C24.9178 39.7524 23.528 32.4742 26.62 26.4971" fill="white"/>
<path d="M34.7798 25.7213C32.2402 29.3759 32.378 34.268 34.3591 38.1331C34.6914 38.7812 35.0647 39.4096 35.4823 40.0083C35.8629 40.5534 36.2846 41.2025 36.7897 41.6406C36.9728 41.8422 37.1641 42.0387 37.3595 42.2321C37.4088 42.2825 37.4593 42.3308 37.5097 42.3802C37.6994 42.5643 37.8923 42.7453 38.0918 42.9212C38.1001 42.9274 38.1073 42.9356 38.1155 42.9418C38.1176 42.944 38.1197 42.9448 38.1211 42.9471C38.3418 43.1405 38.5696 43.3267 38.801 43.5097C38.8525 43.5488 38.9034 43.59 38.9553 43.6301C39.1873 43.808 39.4239 43.9829 39.6666 44.1495C39.6738 44.1548 39.68 44.1598 39.6872 44.1649C39.7942 44.239 39.9032 44.3079 40.0117 44.3789C40.0636 44.4128 40.113 44.4488 40.1655 44.4807C40.3388 44.5918 40.5142 44.6998 40.6926 44.8037C40.7178 44.8191 40.7425 44.8325 40.7672 44.8469C40.921 44.9353 41.0768 45.0228 41.2332 45.1071C41.2877 45.1379 41.3432 45.1647 41.3988 45.1935C41.5068 45.2501 41.6148 45.3077 41.7248 45.3622C41.7413 45.3704 41.7583 45.3776 41.7742 45.3849C41.9979 45.4949 42.2237 45.6009 42.4541 45.7017C42.5034 45.7233 42.5544 45.7428 42.6043 45.7634C42.7884 45.8416 42.9746 45.9177 43.1617 45.9897C43.2409 46.0195 43.3212 46.0483 43.4004 46.0771C43.5701 46.1399 43.7403 46.1975 43.9121 46.2551C43.9897 46.2797 44.0659 46.3055 44.1435 46.3291C44.3878 46.4052 44.629 46.5009 44.8836 46.5431C57.9961 48.7154 61.0232 38.6199 61.0232 38.6199C58.2944 42.5501 53.0099 44.4251 47.3706 42.9615C47.1201 42.8957 46.8733 42.8237 46.628 42.7465C46.5529 42.7239 46.4793 42.6992 46.4048 42.6745C46.2304 42.6179 46.0571 42.5583 45.8853 42.4955C45.8066 42.4667 45.728 42.4379 45.6508 42.4081C45.4626 42.3361 45.2764 42.261 45.0918 42.1828C45.0414 42.1612 44.9904 42.1417 44.9411 42.1191C44.7096 42.0183 44.4818 41.9123 44.2571 41.8012C44.1413 41.7447 44.0277 41.685 43.914 41.6264C43.8482 41.5925 43.7819 41.5585 43.716 41.5245C43.57 41.4453 43.4249 41.3631 43.2819 41.2797C43.248 41.2602 43.2125 41.2417 43.1781 41.2211C43.0006 41.1172 42.8258 41.0102 42.6524 40.9002C42.5989 40.8662 42.5475 40.8292 42.494 40.7942C42.3798 40.7202 42.2657 40.6451 42.1536 40.569C41.9118 40.4023 41.6768 40.2275 41.4449 40.0506C41.3914 40.0084 41.3379 39.9672 41.2854 39.9251C38.817 37.9761 36.8604 35.313 35.9301 32.293C34.9552 29.161 35.1655 25.6451 36.8545 22.792" fill="white"/>
<path d="M43.948 22.5438C42.4509 24.7471 42.3038 27.4833 43.3427 29.9168C44.4381 32.4996 46.683 34.5259 49.303 35.4865C49.411 35.5267 49.519 35.5626 49.6285 35.5997C49.6763 35.6141 49.7237 35.6306 49.772 35.6449C49.9263 35.6933 50.0796 35.7498 50.239 35.7797C57.4792 37.1785 59.443 32.0644 59.9658 31.3116C58.2455 33.7885 55.3546 34.383 51.8075 33.5221C51.5274 33.4538 51.2194 33.3527 50.9493 33.2571C50.603 33.1336 50.2617 32.9929 49.9302 32.8337C49.3003 32.5312 48.6999 32.1638 48.1434 31.7433C44.9692 29.3351 42.9975 24.7407 45.0687 20.999" fill="white"/>
</g>
<defs>
<clipPath id="clip0_962_12573">
<rect width="41.5225" height="41.5225" fill="white" transform="translate(19.9473 19.9473)"/>
</clipPath>
</defs>
</svg>
