<svg width="82" height="82" viewBox="0 0 82 82" fill="none" xmlns="http://www.w3.org/2000/svg">
<circle cx="41" cy="41" r="41" fill="#FF2D20"/>
<path fill-rule="evenodd" clip-rule="evenodd" d="M63.7585 27.2592C63.7756 27.3226 63.7844 27.3881 63.7846 27.4539V37.6753C63.7846 37.8065 63.7499 37.9354 63.6842 38.0489C63.6184 38.1624 63.5239 38.2566 63.41 38.3218L54.8308 43.2611V53.0513C54.8308 53.3177 54.6892 53.5636 54.4582 53.6978L36.5499 64.0068C36.5089 64.0301 36.4641 64.045 36.4194 64.0608C36.4027 64.0664 36.3868 64.0767 36.3691 64.0813C36.2439 64.1143 36.1123 64.1143 35.9872 64.0813C35.9667 64.0757 35.948 64.0646 35.9285 64.0571C35.8875 64.0422 35.8446 64.0292 35.8055 64.0068L17.9009 53.6978C17.7871 53.6325 17.6926 53.5383 17.6269 53.4248C17.5611 53.3113 17.5265 53.1824 17.5264 53.0513V22.3869C17.5264 22.3198 17.5357 22.2546 17.5525 22.1913C17.558 22.1699 17.5711 22.1503 17.5785 22.1289C17.5925 22.0897 17.6056 22.0497 17.626 22.0134C17.64 21.9891 17.6605 21.9696 17.6773 21.9472C17.6987 21.9174 17.7183 21.8867 17.7434 21.8606C17.7649 21.8391 17.7928 21.8233 17.817 21.8047C17.844 21.7823 17.8683 21.7581 17.899 21.7404L26.8527 16.5859C26.9661 16.5207 27.0946 16.4863 27.2254 16.4863C27.3562 16.4863 27.4846 16.5207 27.598 16.5859L36.5508 21.7404H36.5527C36.5825 21.759 36.6076 21.7823 36.6346 21.8037C36.6589 21.8224 36.6859 21.8391 36.7073 21.8596C36.7334 21.8867 36.752 21.9174 36.7744 21.9472C36.7902 21.9696 36.8116 21.9891 36.8247 22.0134C36.8461 22.0506 36.8582 22.0897 36.8731 22.1289C36.8806 22.1503 36.8936 22.1699 36.8992 22.1922C36.9164 22.2557 36.9251 22.3212 36.9253 22.3869V41.5396L44.3856 37.244V27.4529C44.3856 27.3877 44.3949 27.3216 44.4117 27.2592C44.4182 27.2368 44.4303 27.2172 44.4378 27.1958C44.4527 27.1567 44.4657 27.1166 44.4862 27.0803C44.5002 27.0561 44.5207 27.0365 44.5366 27.0141C44.5589 26.9843 44.5775 26.9536 44.6036 26.9275C44.6251 26.9061 44.6521 26.8902 44.6763 26.8716C44.7042 26.8493 44.7285 26.825 44.7583 26.8073L53.7129 21.6528C53.8262 21.5875 53.9548 21.5531 54.0856 21.5531C54.2164 21.5531 54.3449 21.5875 54.4582 21.6528L63.411 26.8073C63.4427 26.826 63.4669 26.8493 63.4948 26.8707C63.5181 26.8893 63.5451 26.9061 63.5666 26.9266C63.5926 26.9536 63.6113 26.9843 63.6336 27.0141C63.6504 27.0365 63.6709 27.0561 63.6839 27.0803C63.7054 27.1166 63.7175 27.1567 63.7324 27.1958C63.7408 27.2172 63.7529 27.2368 63.7585 27.2592ZM62.2921 37.244V28.7441L59.1591 30.5477L54.8308 33.0397V41.5396L62.2931 37.244H62.2921ZM53.3393 52.6199V44.1145L49.0819 46.5459L36.9244 53.4845V62.07L53.3393 52.6199ZM19.0188 23.6772V52.6199L35.4319 62.0691V53.4854L26.8574 48.6327L26.8546 48.6309L26.8509 48.629C26.822 48.6122 26.7978 48.588 26.7707 48.5675C26.7474 48.5489 26.7204 48.534 26.6999 48.5135L26.6981 48.5107C26.6739 48.4874 26.6571 48.4585 26.6366 48.4324C26.618 48.4073 26.5956 48.3858 26.5807 48.3598L26.5798 48.357C26.563 48.329 26.5527 48.2955 26.5406 48.2638C26.5285 48.2359 26.5127 48.2098 26.5052 48.18C26.4959 48.1446 26.4941 48.1064 26.4903 48.07C26.4866 48.0421 26.4791 48.0141 26.4791 47.9862V47.9843V27.9728L22.1518 25.4798L19.0188 23.6772ZM27.2263 18.0932L19.7669 22.3869L27.2244 26.6806L34.6829 22.386L27.2244 18.0932H27.2263ZM31.1055 44.8896L35.4329 42.3985V23.6772L32.2998 25.4807L27.9716 27.9728V46.6941L31.1055 44.8896ZM54.0856 23.1601L46.6271 27.4539L54.0856 31.7476L61.5431 27.4529L54.0856 23.1601ZM53.3393 33.0397L49.0111 30.5477L45.8781 28.7441V37.244L50.2054 39.7351L53.3393 41.5396V33.0397ZM36.1772 52.1942L47.1171 45.9488L52.5857 42.828L45.1328 38.537L36.5517 43.4773L28.7308 47.9797L36.1772 52.1942Z" fill="white"/>
</svg>
