<svg width="82" height="82" viewBox="0 0 82 82" fill="none" xmlns="http://www.w3.org/2000/svg">
<circle cx="41" cy="41" r="41" fill="#509EE3"/>
<g clip-path="url(#clip0_820_11706)">
<path d="M26.9322 33.0777C28.3048 33.0777 29.4176 31.9471 29.4176 30.5525C29.4176 29.1579 28.3048 28.0273 26.9322 28.0273C25.5595 28.0273 24.4468 29.1579 24.4468 30.5525C24.4468 31.9471 25.5595 33.0777 26.9322 33.0777Z" fill="white"/>
<path d="M26.9322 40.149C28.3048 40.149 29.4176 39.0184 29.4176 37.6238C29.4176 36.2292 28.3048 35.0986 26.9322 35.0986C25.5595 35.0986 24.4468 36.2292 24.4468 37.6238C24.4468 39.0184 25.5595 40.149 26.9322 40.149Z" fill="white"/>
<path opacity="0.2" d="M33.8917 33.0777C35.2643 33.0777 36.3771 31.9471 36.3771 30.5525C36.3771 29.1579 35.2643 28.0273 33.8917 28.0273C32.519 28.0273 31.4062 29.1579 31.4062 30.5525C31.4062 31.9471 32.519 33.0777 33.8917 33.0777Z" fill="white"/>
<path d="M33.8917 40.2173C35.2643 40.2173 36.3771 39.0868 36.3771 37.6922C36.3771 36.2976 35.2643 35.167 33.8917 35.167C32.519 35.167 31.4062 36.2976 31.4062 37.6922C31.4062 39.0868 32.519 40.2173 33.8917 40.2173Z" fill="white"/>
<path opacity="0.2" d="M40.8502 33.0777C42.2228 33.0777 43.3356 31.9471 43.3356 30.5525C43.3356 29.1579 42.2228 28.0273 40.8502 28.0273C39.4775 28.0273 38.3647 29.1579 38.3647 30.5525C38.3647 31.9471 39.4775 33.0777 40.8502 33.0777Z" fill="white"/>
<path opacity="0.2" d="M40.8502 24.9976C42.2228 24.9976 43.3356 23.8671 43.3356 22.4724C43.3356 21.0778 42.2228 19.9473 40.8502 19.9473C39.4775 19.9473 38.3647 21.0778 38.3647 22.4724C38.3647 23.8671 39.4775 24.9976 40.8502 24.9976Z" fill="white"/>
<path opacity="0.2" d="M40.8502 40.2173C42.2228 40.2173 43.3356 39.0868 43.3356 37.6922C43.3356 36.2976 42.2228 35.167 40.8502 35.167C39.4775 35.167 38.3647 36.2976 38.3647 37.6922C38.3647 39.0868 39.4775 40.2173 40.8502 40.2173Z" fill="white"/>
<path opacity="0.2" d="M47.8096 33.0777C49.1823 33.0777 50.295 31.9471 50.295 30.5525C50.295 29.1579 49.1823 28.0273 47.8096 28.0273C46.437 28.0273 45.3242 29.1579 45.3242 30.5525C45.3242 31.9471 46.437 33.0777 47.8096 33.0777Z" fill="white"/>
<path d="M54.7691 33.0777C56.1418 33.0777 57.2545 31.9471 57.2545 30.5525C57.2545 29.1579 56.1418 28.0273 54.7691 28.0273C53.3964 28.0273 52.2837 29.1579 52.2837 30.5525C52.2837 31.9471 53.3964 33.0777 54.7691 33.0777Z" fill="white"/>
<path d="M47.8096 40.2173C49.1823 40.2173 50.295 39.0868 50.295 37.6922C50.295 36.2976 49.1823 35.167 47.8096 35.167C46.437 35.167 45.3242 36.2976 45.3242 37.6922C45.3242 39.0868 46.437 40.2173 47.8096 40.2173Z" fill="white"/>
<path d="M54.7691 40.2173C56.1418 40.2173 57.2545 39.0868 57.2545 37.6922C57.2545 36.2976 56.1418 35.167 54.7691 35.167C53.3964 35.167 52.2837 36.2976 52.2837 37.6922C52.2837 39.0868 53.3964 40.2173 54.7691 40.2173Z" fill="white"/>
<path d="M26.9322 47.2193C28.3048 47.2193 29.4176 46.0887 29.4176 44.6941C29.4176 43.2995 28.3048 42.1689 26.9322 42.1689C25.5595 42.1689 24.4468 43.2995 24.4468 44.6941C24.4468 46.0887 25.5595 47.2193 26.9322 47.2193Z" fill="white"/>
<path opacity="0.2" d="M33.8917 47.2876C35.2643 47.2876 36.3771 46.1571 36.3771 44.7625C36.3771 43.3679 35.2643 42.2373 33.8917 42.2373C32.519 42.2373 31.4062 43.3679 31.4062 44.7625C31.4062 46.1571 32.519 47.2876 33.8917 47.2876Z" fill="white"/>
<path d="M40.8502 47.2876C42.2228 47.2876 43.3356 46.1571 43.3356 44.7625C43.3356 43.3679 42.2228 42.2373 40.8502 42.2373C39.4775 42.2373 38.3647 43.3679 38.3647 44.7625C38.3647 46.1571 39.4775 47.2876 40.8502 47.2876Z" fill="white"/>
<path opacity="0.2" d="M47.8096 47.2876C49.1823 47.2876 50.295 46.1571 50.295 44.7625C50.295 43.3679 49.1823 42.2373 47.8096 42.2373C46.437 42.2373 45.3242 43.3679 45.3242 44.7625C45.3242 46.1571 46.437 47.2876 47.8096 47.2876Z" fill="white"/>
<path d="M54.7691 47.2876C56.1418 47.2876 57.2545 46.1571 57.2545 44.7625C57.2545 43.3679 56.1418 42.2373 54.7691 42.2373C53.3964 42.2373 52.2837 43.3679 52.2837 44.7625C52.2837 46.1571 53.3964 47.2876 54.7691 47.2876Z" fill="white"/>
<path d="M26.9322 54.2896C28.3048 54.2896 29.4176 53.159 29.4176 51.7644C29.4176 50.3698 28.3048 49.2393 26.9322 49.2393C25.5595 49.2393 24.4468 50.3698 24.4468 51.7644C24.4468 53.159 25.5595 54.2896 26.9322 54.2896Z" fill="white"/>
<path opacity="0.2" d="M33.8917 54.358C35.2643 54.358 36.3771 53.2274 36.3771 51.8328C36.3771 50.4382 35.2643 49.3076 33.8917 49.3076C32.519 49.3076 31.4062 50.4382 31.4062 51.8328C31.4062 53.2274 32.519 54.358 33.8917 54.358Z" fill="white"/>
<path opacity="0.2" d="M40.8502 54.358C42.2228 54.358 43.3356 53.2274 43.3356 51.8328C43.3356 50.4382 42.2228 49.3076 40.8502 49.3076C39.4775 49.3076 38.3647 50.4382 38.3647 51.8328C38.3647 53.2274 39.4775 54.358 40.8502 54.358Z" fill="white"/>
<path opacity="0.2" d="M40.8502 61.4293C42.2228 61.4293 43.3356 60.2987 43.3356 58.9041C43.3356 57.5095 42.2228 56.3789 40.8502 56.3789C39.4775 56.3789 38.3647 57.5095 38.3647 58.9041C38.3647 60.2987 39.4775 61.4293 40.8502 61.4293Z" fill="white"/>
<path opacity="0.2" d="M47.8096 54.358C49.1823 54.358 50.295 53.2274 50.295 51.8328C50.295 50.4382 49.1823 49.3076 47.8096 49.3076C46.437 49.3076 45.3242 50.4382 45.3242 51.8328C45.3242 53.2274 46.437 54.358 47.8096 54.358Z" fill="white"/>
<path d="M54.7691 54.358C56.1418 54.358 57.2545 53.2274 57.2545 51.8328C57.2545 50.4382 56.1418 49.3076 54.7691 49.3076C53.3964 49.3076 52.2837 50.4382 52.2837 51.8328C52.2837 53.2274 53.3964 54.358 54.7691 54.358Z" fill="white"/>
</g>
<defs>
<clipPath id="clip0_820_11706">
<rect width="32.8074" height="41.5225" fill="white" transform="translate(24.4453 19.9473)"/>
</clipPath>
</defs>
</svg>
