<svg width="82" height="82" viewBox="0 0 82 82" fill="none" xmlns="http://www.w3.org/2000/svg">
<circle cx="41" cy="41" r="41" fill="black"/>
<g clip-path="url(#clip0_820_11737)">
<mask id="mask0_820_11737" style="mask-type:luminance" maskUnits="userSpaceOnUse" x="21" y="19" width="40" height="43">
<path d="M60.3706 19.9473H21.0464V61.3476H60.3706V19.9473Z" fill="white"/>
</mask>
<g mask="url(#mask0_820_11737)">
<path d="M33.5028 53.2873C33.5028 54.6307 32.4037 55.8519 30.9382 55.8519C29.4727 55.8519 28.3735 54.7528 28.3735 53.2873V42.2961C28.3735 40.9527 29.4727 39.7314 30.9382 39.7314C32.4037 39.7314 33.5028 40.8306 33.5028 42.2961V53.2873Z" fill="white"/>
</g>
<mask id="mask1_820_11737" style="mask-type:luminance" maskUnits="userSpaceOnUse" x="21" y="19" width="40" height="43">
<path d="M60.3706 19.9473H21.0464V61.3476H60.3706V19.9473Z" fill="white"/>
</mask>
<g mask="url(#mask1_820_11737)">
<path d="M40.8309 56.2186C40.8309 57.562 39.7317 58.7832 38.2662 58.7832C36.8007 58.7832 35.8237 57.6841 35.8237 56.2186V39.4875C35.8237 38.1441 36.9229 36.9229 38.3884 36.9229C39.8539 36.9229 40.953 38.022 40.953 39.4875V56.2186H40.8309Z" fill="white"/>
</g>
<mask id="mask2_820_11737" style="mask-type:luminance" maskUnits="userSpaceOnUse" x="21" y="19" width="40" height="43">
<path d="M60.3706 19.9473H21.0464V61.3476H60.3706V19.9473Z" fill="white"/>
</mask>
<g mask="url(#mask2_820_11737)">
<path d="M26.0526 50.8446C26.0526 52.188 24.9535 53.4093 23.488 53.4093C22.0225 53.4093 20.9233 52.3101 20.9233 50.8446V44.8605C20.9233 43.5171 22.0225 42.2959 23.488 42.2959C24.9535 42.2959 26.0526 43.5171 26.0526 44.8605V50.8446Z" fill="white"/>
</g>
<mask id="mask3_820_11737" style="mask-type:luminance" maskUnits="userSpaceOnUse" x="21" y="19" width="40" height="43">
<path d="M60.3706 19.9473H21.0464V61.3476H60.3706V19.9473Z" fill="white"/>
</mask>
<g mask="url(#mask3_820_11737)">
<path d="M48.1595 58.9056C48.1595 60.249 47.0603 61.4702 45.5948 61.4702C44.2515 61.4702 43.1523 60.249 43.1523 58.9056V36.6789C43.1523 35.3355 44.2515 34.1143 45.717 34.1143C47.0603 34.1143 48.2816 35.2134 48.2816 36.6789V58.9056H48.1595Z" fill="white"/>
</g>
<mask id="mask4_820_11737" style="mask-type:luminance" maskUnits="userSpaceOnUse" x="21" y="19" width="40" height="43">
<path d="M60.3706 19.9473H21.0464V61.3476H60.3706V19.9473Z" fill="white"/>
</mask>
<g mask="url(#mask4_820_11737)">
<path d="M56.2178 57.8062C55.7293 57.8062 55.3629 57.6841 54.8744 57.562L51.8213 56.585C51.3328 56.4628 50.9664 55.8522 51.2107 55.3637C51.3328 54.8752 51.9434 54.5088 52.4319 54.7531L55.6072 55.7301C56.2178 55.9743 56.9506 55.8522 57.5612 55.3637C58.1718 54.9973 58.4161 54.2646 58.4161 53.654V33.2591C58.4161 32.2821 57.8054 31.4272 56.9506 31.183L27.03 22.1458C26.4193 21.9015 25.6866 22.0236 25.076 22.39C24.5875 22.8785 24.2211 23.4891 24.2211 24.2219V38.2662C24.2211 38.8769 23.7326 39.2432 23.2441 39.2432C22.6335 39.2432 22.2671 38.7547 22.2671 38.2662V24.2219C22.2671 22.8785 22.8777 21.6573 23.9768 20.9245C25.076 20.0696 26.4193 19.9475 27.6406 20.3139L57.4391 29.3511C59.1488 29.8396 60.37 31.5494 60.37 33.3812V53.7761C60.37 55.1195 59.7594 56.3407 58.6603 57.1956C57.9276 57.4398 57.0727 57.8062 56.2178 57.8062Z" fill="white"/>
</g>
</g>
<defs>
<clipPath id="clip0_820_11737">
<rect width="41.5225" height="41.5225" fill="white" transform="translate(19.9473 19.9473)"/>
</clipPath>
</defs>
</svg>
