<svg width="82" height="82" viewBox="0 0 82 82" fill="none" xmlns="http://www.w3.org/2000/svg">
<circle cx="41" cy="41" r="41" fill="#53C1DE"/>
<g clip-path="url(#clip0_820_11649)">
<path d="M13.1904 40.6543C13.1904 44.8098 17.2482 48.6889 23.6452 50.8755C22.3678 57.3065 23.4164 62.4901 26.9186 64.5098C30.5183 66.5859 35.8812 65.1489 40.9713 60.6993C45.9331 64.9692 50.9475 66.6495 54.4467 64.624C58.0431 62.542 59.1368 57.007 57.824 50.3751C64.4871 48.1722 68.2142 44.8645 68.2142 40.6543C68.2142 36.5953 64.1491 33.0838 57.8381 30.9112C59.2514 24.0053 58.0539 18.9476 54.4067 16.8444C50.8904 14.8167 45.8176 16.584 40.783 20.9655C35.5451 16.315 30.5224 14.8952 26.879 17.0042C23.366 19.0377 22.3636 24.3156 23.6452 30.8656C17.464 33.0207 13.1904 36.6117 13.1904 40.6543Z" fill="#FAFAFA"/>
<path d="M56.5 33.0681C55.9799 32.8897 55.4554 32.7245 54.9269 32.5725C55.0145 32.2164 55.0956 31.8587 55.17 31.4996C56.3607 25.7193 55.5822 21.0627 52.9235 19.5299C50.3744 18.0597 46.2052 19.5926 41.9946 23.2567C41.5797 23.6186 41.174 23.9909 40.7779 24.3733C40.5127 24.119 40.2427 23.8697 39.9682 23.6255C35.5554 19.7072 31.1322 18.0563 28.4762 19.5937C25.9295 21.0679 25.1752 25.4457 26.2472 30.9237C26.3539 31.4662 26.4743 32.0058 26.6084 32.5422C25.9825 32.72 25.3781 32.9094 24.7998 33.111C19.6263 34.9146 16.3223 37.7416 16.3223 40.6737C16.3223 43.7022 19.869 46.7398 25.2578 48.5815C25.6948 48.7302 26.1354 48.8679 26.5792 48.9946C26.435 49.5724 26.307 50.1542 26.1953 50.7392C25.1733 56.122 25.9715 60.396 28.5115 61.8612C31.135 63.3739 35.5381 61.819 39.8257 58.0712C40.1646 57.7749 40.5048 57.4606 40.8454 57.1313C41.2744 57.5452 41.7149 57.9471 42.1663 58.3365C46.3194 61.9103 50.4211 63.3534 52.9589 61.8843C55.58 60.367 56.4317 55.7755 55.3257 50.1892C55.2414 49.7626 55.143 49.3268 55.0327 48.883C55.3419 48.7917 55.6453 48.6975 55.9414 48.5993C61.5435 46.7433 65.1881 43.7427 65.1881 40.6737C65.1881 37.731 61.7777 34.885 56.5 33.0681Z" fill="#53C1DE"/>
<path d="M55.2858 46.6182C55.0188 46.7067 54.7445 46.7921 54.4651 46.875C53.8466 44.9171 53.0118 42.8352 51.9906 40.6844C52.9653 38.5845 53.7677 36.5294 54.3689 34.5841C54.8687 34.729 55.354 34.8814 55.8215 35.0426C60.3436 36.599 63.1018 38.9007 63.1018 40.674C63.1018 42.5631 60.1226 45.0155 55.2858 46.6182ZM53.2789 50.5951C53.7679 53.0653 53.8377 55.2986 53.5138 57.0445C53.2227 58.6133 52.6375 59.6591 51.9139 60.078C50.3739 60.9694 47.0804 59.8107 43.5289 56.7545C43.1217 56.4041 42.7115 56.03 42.3001 55.6342C43.6771 54.1282 45.0531 52.3773 46.3961 50.4331C48.7586 50.2236 50.9904 49.8808 53.0144 49.413C53.1139 49.8153 53.2026 50.2095 53.2789 50.5951ZM32.9827 59.924C31.4781 60.4554 30.2798 60.4705 29.5555 60.0529C28.014 59.1641 27.3734 55.732 28.2474 51.1288C28.3513 50.5848 28.4703 50.0438 28.6042 49.5064C30.6057 49.9491 32.8213 50.2677 35.1894 50.4597C36.5413 52.3622 37.9571 54.1109 39.384 55.6422C39.0808 55.9356 38.7703 56.2214 38.453 56.4995C36.557 58.1569 34.6572 59.3326 32.9829 59.924H32.9827ZM25.934 46.6066C23.5512 45.7921 21.5834 44.7337 20.2346 43.5789C19.0227 42.5408 18.4106 41.5103 18.4106 40.674C18.4106 38.8949 21.0635 36.6252 25.4881 35.0826C26.0434 34.8898 26.6043 34.7133 27.1699 34.5534C27.7815 36.5423 28.5836 38.6219 29.5516 40.7249C28.5711 42.8592 27.7575 44.9718 27.1403 46.9842C26.7352 46.8682 26.3329 46.7423 25.934 46.6066ZM28.2969 30.5231C27.3784 25.8296 27.9883 22.2891 29.5231 21.4007C31.158 20.4543 34.7729 21.8038 38.583 25.1868C38.8265 25.4031 39.0711 25.6295 39.3161 25.8637C37.8966 27.3882 36.4937 29.1237 35.1535 31.0151C32.8553 31.2281 30.6552 31.5702 28.6327 32.0285C28.5082 31.5295 28.3962 31.0277 28.2969 30.5231ZM49.3754 35.7279C48.8977 34.9027 48.4022 34.088 47.8894 33.2841C49.4487 33.4809 50.9424 33.7426 52.3451 34.0629C51.924 35.4126 51.3992 36.8239 50.7811 38.2707C50.3295 37.4138 49.8608 36.5661 49.3754 35.7279ZM40.7796 27.3555C41.7424 28.3985 42.7067 29.5633 43.6552 30.827C41.7311 30.736 39.8038 30.7356 37.8797 30.8257C38.8291 29.5737 39.8016 28.4106 40.7796 27.3555ZM32.1286 35.7422C31.6493 36.5737 31.1894 37.4162 30.7493 38.2692C30.1414 36.8274 29.6213 35.4098 29.1965 34.0408C30.5908 33.7288 32.0776 33.4738 33.6267 33.2802C33.1081 34.089 32.6086 34.9099 32.1286 35.7422ZM33.6712 48.2169C32.0709 48.0382 30.5616 47.7962 29.1678 47.4928C29.5992 46.0996 30.1308 44.6516 30.7517 43.1788C31.1936 44.0324 31.6555 44.8755 32.1371 45.7073C32.6284 46.5559 33.14 47.3927 33.6712 48.2169ZM40.8373 54.1401C39.8479 53.0724 38.8611 51.8916 37.8972 50.6215C38.8328 50.6583 39.7867 50.6769 40.7562 50.6769C41.7523 50.6769 42.737 50.6546 43.706 50.6113C42.7545 51.9046 41.7936 53.0871 40.8373 54.1401ZM50.801 43.1038C51.4541 44.5925 52.0047 46.0328 52.442 47.4024C51.025 47.7257 49.4954 47.9861 47.8836 48.1794C48.4001 47.3606 48.9003 46.5316 49.3838 45.6929C49.8754 44.8404 50.3479 43.9772 50.801 43.1038ZM47.5754 44.65C46.8352 45.9359 46.0534 47.1974 45.2311 48.4325C43.7813 48.5361 42.283 48.5895 40.7562 48.5895C39.2357 48.5895 37.7564 48.5421 36.3319 48.4498C35.4884 47.2176 34.6917 45.9539 33.9437 44.6615C33.1992 43.3759 32.5038 42.0626 31.8589 40.7242C32.5021 39.3855 33.1955 38.0714 33.9375 36.7848V36.7852C34.6792 35.4983 35.4696 34.2401 36.3068 33.0132C37.7601 32.9033 39.2502 32.8458 40.7564 32.8458C42.2694 32.8458 43.7614 32.9037 45.2143 33.0145C46.0431 34.2395 46.8284 35.4933 47.5687 36.7737C48.3132 38.0575 49.0158 39.3651 49.6753 40.6946C49.0226 42.0376 48.3221 43.3569 47.5754 44.65ZM51.8819 21.3386C53.5181 22.2824 54.1546 26.088 53.1265 31.0787C53.0591 31.4038 52.9858 31.7277 52.9067 32.0501C50.8795 31.5824 48.6779 31.2342 46.373 31.0179C45.0302 29.1059 43.639 27.3674 42.2424 25.8626C42.6084 25.5098 42.983 25.1661 43.3661 24.8319C46.9738 21.6922 50.3455 20.4526 51.8819 21.3386Z" fill="#FAFAFA"/>
<path d="M40.7561 36.3105C43.1661 36.3105 45.1196 38.2643 45.1196 40.6741C45.1196 43.0841 43.1661 45.0378 40.7561 45.0378C38.3463 45.0378 36.3926 43.0841 36.3926 40.6741C36.3926 38.2643 38.3463 36.3105 40.7561 36.3105Z" fill="#53C1DE"/>
</g>
<defs>
<clipPath id="clip0_820_11649">
<rect width="55.3633" height="55.3633" fill="white" transform="translate(13.0269 13.0264)"/>
</clipPath>
</defs>
</svg>
