<svg width="82" height="82" viewBox="0 0 82 82" fill="none" xmlns="http://www.w3.org/2000/svg">
<circle cx="41" cy="41" r="41" fill="#01A71C"/>
<g clip-path="url(#clip0_820_11676)">
<path d="M46.837 46.2162C46.0739 46.193 45.33 46.4577 44.753 46.9577C44.1761 47.4578 43.8083 48.1565 43.7228 48.9152C43.719 48.9299 43.7187 48.9453 43.7219 48.9601C43.7251 48.9749 43.7317 48.9888 43.7411 49.0007C43.7506 49.0125 43.7627 49.022 43.7765 49.0284C43.7903 49.0347 43.8054 49.0378 43.8205 49.0373H49.8657C49.8796 49.0374 49.8934 49.0346 49.9061 49.0289C49.9188 49.0232 49.9302 49.0149 49.9395 49.0045C49.9487 48.9941 49.9556 48.9818 49.9598 48.9685C49.9639 48.9552 49.9651 48.9412 49.9634 48.9274C49.9039 48.155 49.5424 47.4371 48.9571 46.9296C48.3718 46.4221 47.61 46.1657 46.837 46.2162Z" fill="white"/>
<path d="M59.7936 25.9436L46.9706 40.3421C46.934 40.3817 46.8896 40.4133 46.8402 40.4349C46.7908 40.4565 46.7375 40.4677 46.6836 40.4677C46.6297 40.4677 46.5763 40.4565 46.5269 40.4349C46.4776 40.4133 46.4332 40.3817 46.3966 40.3421L39.8507 33.5886C39.7952 33.5193 39.765 33.4332 39.765 33.3444C39.765 33.2556 39.7952 33.1694 39.8507 33.1001L42.0123 30.3279C42.0485 30.2775 42.0962 30.2364 42.1514 30.208C42.2066 30.1797 42.2678 30.1649 42.3298 30.1649C42.3919 30.1649 42.4531 30.1797 42.5083 30.208C42.5635 30.2364 42.6112 30.2775 42.6474 30.3279L46.3111 34.3824C46.3478 34.4261 46.3936 34.4612 46.4453 34.4853C46.4969 34.5094 46.5533 34.5218 46.6103 34.5218C46.6673 34.5218 46.7236 34.5094 46.7753 34.4853C46.827 34.4612 46.8728 34.4261 46.9095 34.3824L57.1191 20.3869C57.1475 20.3456 57.1643 20.2973 57.1677 20.2473C57.1712 20.1972 57.1612 20.1472 57.1388 20.1023C57.1163 20.0574 57.0823 20.0194 57.0401 19.9921C56.998 19.9648 56.9494 19.9494 56.8992 19.9473H20.9459C20.865 19.9473 20.7873 19.9794 20.73 20.0367C20.6728 20.0939 20.6406 20.1716 20.6406 20.2526V61.1644C20.6406 61.2454 20.6728 61.323 20.73 61.3803C20.7873 61.4376 20.865 61.4697 20.9459 61.4697H60.0256C60.1066 61.4697 60.1842 61.4376 60.2415 61.3803C60.2988 61.323 60.3309 61.2454 60.3309 61.1644V26.1268C60.3552 26.0555 60.3502 25.9775 60.317 25.91C60.2838 25.8424 60.2251 25.7908 60.1538 25.7665C60.0826 25.7422 60.0046 25.7472 59.937 25.7804C59.8695 25.8137 59.8179 25.8723 59.7936 25.9436ZM31.7051 56.9145C29.1396 57.0438 26.6248 56.1675 24.6951 54.472C24.6342 54.4028 24.6005 54.3138 24.6005 54.2216C24.6005 54.1294 24.6342 54.0404 24.6951 53.9713L26.2217 51.8341C26.2469 51.7903 26.2806 51.752 26.3208 51.7215C26.3611 51.6909 26.407 51.6687 26.4559 51.6562C26.5049 51.6437 26.5558 51.6411 26.6058 51.6486C26.6557 51.656 26.7037 51.6734 26.7468 51.6997C28.1414 52.9926 29.9744 53.7084 31.876 53.7026C33.8789 53.7026 34.8559 52.7744 34.8559 51.7974C34.8559 48.7687 24.9882 50.8449 24.9882 44.3967C24.9882 41.5512 27.4307 39.1819 31.4852 39.1819C33.812 39.0992 36.09 39.8629 37.8967 41.3313C37.9647 41.4019 38.0026 41.496 38.0026 41.5939C38.0026 41.6918 37.9647 41.7859 37.8967 41.8565L36.3946 43.9448C36.3636 43.9863 36.3244 44.0211 36.2794 44.0468C36.2344 44.0726 36.1846 44.0888 36.1331 44.0946C36.0816 44.1003 36.0294 44.0954 35.9799 44.0801C35.9303 44.0649 35.8844 44.0396 35.8451 44.0059C34.5128 42.947 32.8572 42.3779 31.1555 42.3938C29.5923 42.3938 28.713 43.0899 28.713 44.1158C28.713 46.8392 38.5562 45.0195 38.5562 51.4433C38.5562 54.5452 36.3213 56.9145 31.6928 56.9145H31.7051ZM53.2233 50.967C53.225 51.0124 53.2174 51.0576 53.2008 51.0998C53.1842 51.1421 53.1591 51.1805 53.127 51.2126C53.0949 51.2447 53.0565 51.2698 53.0142 51.2864C52.972 51.303 52.9267 51.3106 52.8814 51.3089H43.8442C43.8297 51.3105 43.8157 51.3148 43.8029 51.3218C43.7902 51.3288 43.7789 51.3382 43.7698 51.3496C43.7607 51.3609 43.754 51.374 43.75 51.388C43.746 51.402 43.7448 51.4166 43.7465 51.4311C43.893 52.2756 44.3503 53.0346 45.0283 53.559C45.7063 54.0833 46.556 54.3349 47.4102 54.2644C48.5311 54.2406 49.6195 53.8835 50.5366 53.2385C50.5724 53.2085 50.6141 53.1864 50.6591 53.1738C50.704 53.1611 50.7512 53.1582 50.7973 53.1651C50.8435 53.172 50.8877 53.1887 50.927 53.214C50.9662 53.2393 50.9997 53.2726 51.0251 53.3118L52.1242 54.9116C52.17 54.9827 52.1879 55.0682 52.1743 55.1516C52.1608 55.2351 52.1168 55.3105 52.0509 55.3635C50.5999 56.4224 48.8396 56.972 47.0438 56.9267C46.1468 56.9767 45.2492 56.8388 44.4086 56.5216C43.5679 56.2045 42.8029 55.7152 42.1624 55.085C41.522 54.4549 41.0203 53.6979 40.6895 52.8626C40.3587 52.0272 40.2061 51.132 40.2415 50.2342C40.2166 49.358 40.3696 48.4858 40.6913 47.6704C41.013 46.855 41.4966 46.1133 42.113 45.49C42.7294 44.8668 43.4657 44.375 44.2776 44.0443C45.0894 43.7136 45.9598 43.551 46.8362 43.5662C50.6343 43.5662 53.2111 46.4117 53.2111 50.5762L53.2233 50.967Z" fill="white"/>
</g>
<defs>
<clipPath id="clip0_820_11676">
<rect width="40.3009" height="41.5225" fill="white" transform="translate(20.6392 19.9473)"/>
</clipPath>
</defs>
</svg>
