<svg width="82" height="82" viewBox="0 0 82 82" fill="none" xmlns="http://www.w3.org/2000/svg">
<circle cx="41" cy="41" r="40.5" stroke="#E4E2F0"/>
<path d="M44.9492 20.6387L45.2621 21.5729L55.5875 31.5383V58.6317C55.5875 60.0077 54.4668 61.1231 53.0844 61.1231H28.6789C27.2965 61.1231 26.1758 60.0077 26.1758 58.6317V23.13C26.1758 21.7541 27.2965 20.6387 28.6789 20.6387H44.9492Z" fill="#0F9D58"/>
<path d="M55.5877 40.5699L45.5752 30.6045L51.833 27.8018L55.5877 31.5388V40.5699Z" fill="url(#paint0_linear_820_11818)" fill-opacity="0.2"/>
<path d="M44.9492 27.5383V20.6387L55.5875 31.5383H48.9492C46.7401 31.5383 44.9492 29.7475 44.9492 27.5383Z" fill="#8ED1B1"/>
<path fill-rule="evenodd" clip-rule="evenodd" d="M33.6851 53.6487V39.9463H48.078V53.6487H33.6851ZM41.8202 41.8148H46.2007V43.6833L41.8202 43.6833V41.8148ZM41.8202 45.5518L46.2007 45.5518V47.4203L41.8202 47.4203V45.5518ZM39.9429 47.4203V45.5518L35.5624 45.5518V47.4203L39.9429 47.4203ZM35.5624 49.2888L39.9429 49.2888V51.7802H35.5624V49.2888ZM41.8202 49.2888H46.2007V51.7802H41.8202V49.2888ZM39.9429 41.8148V43.6833L35.5624 43.6833V41.8148H39.9429Z" fill="white"/>
<defs>
<linearGradient id="paint0_linear_820_11818" x1="47.1396" y1="29.6703" x2="55.5412" y2="39.6747" gradientUnits="userSpaceOnUse">
<stop/>
<stop offset="1" stop-opacity="0"/>
</linearGradient>
</defs>
</svg>
