<svg width="82" height="82" viewBox="0 0 82 82" fill="none" xmlns="http://www.w3.org/2000/svg">
<circle cx="41" cy="41" r="41" fill="#464342"/>
<g clip-path="url(#clip0_820_11696)">
<path d="M22.8869 40.6275C22.8869 47.6498 26.9679 53.7185 32.8857 56.5944L24.4229 33.4073C23.4385 35.6137 22.8869 38.0554 22.8869 40.6275ZM52.6049 39.7322C52.6049 37.5396 51.8173 36.0212 51.1418 34.8393C50.2425 33.3779 49.3995 32.1404 49.3995 30.679C49.3995 29.0481 50.6364 27.53 52.3787 27.53C52.4573 27.53 52.5319 27.5398 52.6086 27.5442C49.4522 24.6525 45.2469 22.8869 40.6282 22.8869C34.4302 22.8869 28.9772 26.0669 25.805 30.8835C26.2212 30.896 26.6135 30.9048 26.9467 30.9048C28.8024 30.9048 31.6748 30.6796 31.6748 30.6796C32.6312 30.6233 32.7439 32.0279 31.7886 32.141C31.7886 32.141 30.8275 32.2541 29.758 32.3102L36.2187 51.527L40.1012 39.8828L37.3371 32.3095C36.3817 32.2534 35.4767 32.1404 35.4767 32.1404C34.5206 32.0843 34.6327 30.6226 35.5887 30.679C35.5887 30.679 38.5186 30.9041 40.2619 30.9041C42.1172 30.9041 44.99 30.679 44.99 30.679C45.9471 30.6226 46.0595 32.0273 45.1038 32.1404C45.1038 32.1404 44.1407 32.2534 43.0733 32.3095L49.4846 51.3808L51.2542 45.4674C52.0212 43.0135 52.6049 41.251 52.6049 39.7322ZM40.9394 42.1793L35.6164 57.647C37.2058 58.1142 38.8866 58.3697 40.6282 58.3697C42.6941 58.3697 44.6754 58.0126 46.5196 57.3641C46.472 57.2881 46.4288 57.2074 46.3934 57.1197L40.9394 42.1793ZM56.1954 32.1157C56.2717 32.6808 56.3149 33.2875 56.3149 33.94C56.3149 35.7403 55.9786 37.7641 54.9659 40.2946L49.5467 55.9628C54.8211 52.8871 58.3687 47.1728 58.3687 40.6278C58.369 37.5433 57.5811 34.6428 56.1954 32.1157ZM40.6282 19.9473C29.225 19.9473 19.9473 29.2243 19.9473 40.6275C19.9473 52.032 29.225 61.3087 40.6282 61.3087C52.031 61.3087 61.3101 52.032 61.3101 40.6275C61.3097 29.2243 52.031 19.9473 40.6282 19.9473ZM40.6282 60.3608C29.7479 60.3608 20.8955 51.5084 20.8955 40.6275C20.8955 29.7472 29.7476 20.8955 40.6282 20.8955C51.5081 20.8955 60.3598 29.7472 60.3598 40.6275C60.3598 51.5084 51.5081 60.3608 40.6282 60.3608Z" fill="white"/>
</g>
<defs>
<clipPath id="clip0_820_11696">
<rect width="41.5225" height="41.5225" fill="white" transform="translate(19.9473 19.9473)"/>
</clipPath>
</defs>
</svg>
